P3 2 2 255
  1   1   1 255 255 255   1   1   1 255 255 255